<?xml version="1.0" encoding="UTF-8" standalone="no"?>
<!DOCTYPE svg PUBLIC "-//W3C//DTD SVG 1.1//EN"
 "http://www.w3.org/Graphics/SVG/1.1/DTD/svg11.dtd">
<!-- Generated by graphviz version 2.50.0 (0)
 -->
<!-- Pages: 1 -->
<svg width="1310pt" height="404pt"
 viewBox="0.00 0.00 1310.00 404.00" xmlns="http://www.w3.org/2000/svg" xmlns:xlink="http://www.w3.org/1999/xlink">
<g id="graph0" class="graph" transform="scale(1 1) rotate(0) translate(4 400)">
<polygon fill="white" stroke="transparent" points="-4,4 -4,-400 1306,-400 1306,4 -4,4"/>
<!-- &#45;2676281179764252910 -->
<g id="node1" class="node">
<title>&#45;2676281179764252910</title>
<polygon fill="none" stroke="black" points="707,-396 595,-396 595,-360 707,-360 707,-396"/>
<text text-anchor="middle" x="651" y="-373" font-family="Helvetica,sans-Serif" font-size="20.00">Sum(IsNa)</text>
</g>
<!-- 667245661411875677 -->
<g id="node2" class="node">
<title>667245661411875677</title>
<polygon fill="none" stroke="black" points="708,-324 594,-324 594,-288 708,-288 708,-324"/>
<text text-anchor="middle" x="651" y="-301" font-family="Helvetica,sans-Serif" font-size="20.00">IsNa(Drop)</text>
</g>
<!-- 667245661411875677&#45;&gt;&#45;2676281179764252910 -->
<g id="edge1" class="edge">
<title>667245661411875677&#45;&gt;&#45;2676281179764252910</title>
<path fill="none" stroke="black" d="M651,-324.3C651,-332.02 651,-341.29 651,-349.89"/>
<polygon fill="black" stroke="black" points="647.5,-349.9 651,-359.9 654.5,-349.9 647.5,-349.9"/>
</g>
<!-- &#45;8049424116948379420 -->
<g id="node3" class="node">
<title>&#45;8049424116948379420</title>
<polygon fill="none" stroke="black" points="719.5,-252 582.5,-252 582.5,-216 719.5,-216 719.5,-252"/>
<text text-anchor="middle" x="651" y="-229" font-family="Helvetica,sans-Serif" font-size="20.00">Drop(Concat)</text>
</g>
<!-- &#45;8049424116948379420&#45;&gt;667245661411875677 -->
<g id="edge2" class="edge">
<title>&#45;8049424116948379420&#45;&gt;667245661411875677</title>
<path fill="none" stroke="black" d="M651,-252.3C651,-260.02 651,-269.29 651,-277.89"/>
<polygon fill="black" stroke="black" points="647.5,-277.9 651,-287.9 654.5,-277.9 647.5,-277.9"/>
</g>
<!-- &#45;2758759442461694058 -->
<g id="node4" class="node">
<title>&#45;2758759442461694058</title>
<polygon fill="none" stroke="black" points="1016.5,-180 285.5,-180 285.5,-144 1016.5,-144 1016.5,-180"/>
<text text-anchor="middle" x="651" y="-157" font-family="Helvetica,sans-Serif" font-size="20.00">Concat(ArrowStringConversion, ArrowStringConversion, ArrowStringConversion)</text>
</g>
<!-- &#45;2758759442461694058&#45;&gt;&#45;8049424116948379420 -->
<g id="edge3" class="edge">
<title>&#45;2758759442461694058&#45;&gt;&#45;8049424116948379420</title>
<path fill="none" stroke="black" d="M651,-180.3C651,-188.02 651,-197.29 651,-205.89"/>
<polygon fill="black" stroke="black" points="647.5,-205.9 651,-215.9 654.5,-205.9 647.5,-205.9"/>
</g>
<!-- &#45;2530424021994650831 -->
<g id="node5" class="node">
<title>&#45;2530424021994650831</title>
<polygon fill="none" stroke="black" points="422,-108 0,-108 0,-72 422,-72 422,-108"/>
<text text-anchor="middle" x="211" y="-85" font-family="Helvetica,sans-Serif" font-size="20.00">ArrowStringConversion(FromMapProjectable)</text>
</g>
<!-- &#45;2530424021994650831&#45;&gt;&#45;2758759442461694058 -->
<g id="edge4" class="edge">
<title>&#45;2530424021994650831&#45;&gt;&#45;2758759442461694058</title>
<path fill="none" stroke="black" d="M318.07,-108.03C383.28,-118.41 466.65,-131.67 533.64,-142.33"/>
<polygon fill="black" stroke="black" points="533.4,-145.84 543.83,-143.95 534.5,-138.92 533.4,-145.84"/>
</g>
<!-- &#45;5184994830438866149 -->
<g id="node6" class="node">
<title>&#45;5184994830438866149</title>
<polygon fill="none" stroke="black" points="312.5,-36 109.5,-36 109.5,0 312.5,0 312.5,-36"/>
<text text-anchor="middle" x="211" y="-13" font-family="Helvetica,sans-Serif" font-size="20.00">FromMapProjectable</text>
</g>
<!-- &#45;5184994830438866149&#45;&gt;&#45;2530424021994650831 -->
<g id="edge7" class="edge">
<title>&#45;5184994830438866149&#45;&gt;&#45;2530424021994650831</title>
<path fill="none" stroke="black" d="M211,-36.3C211,-44.02 211,-53.29 211,-61.89"/>
<polygon fill="black" stroke="black" points="207.5,-61.9 211,-71.9 214.5,-61.9 207.5,-61.9"/>
</g>
<!-- &#45;8316420070872858774 -->
<g id="node7" class="node">
<title>&#45;8316420070872858774</title>
<polygon fill="none" stroke="black" points="862,-108 440,-108 440,-72 862,-72 862,-108"/>
<text text-anchor="middle" x="651" y="-85" font-family="Helvetica,sans-Serif" font-size="20.00">ArrowStringConversion(FromMapProjectable)</text>
</g>
<!-- &#45;8316420070872858774&#45;&gt;&#45;2758759442461694058 -->
<g id="edge5" class="edge">
<title>&#45;8316420070872858774&#45;&gt;&#45;2758759442461694058</title>
<path fill="none" stroke="black" d="M651,-108.3C651,-116.02 651,-125.29 651,-133.89"/>
<polygon fill="black" stroke="black" points="647.5,-133.9 651,-143.9 654.5,-133.9 647.5,-133.9"/>
</g>
<!-- 4868896269816370085 -->
<g id="node8" class="node">
<title>4868896269816370085</title>
<polygon fill="none" stroke="black" points="752.5,-36 549.5,-36 549.5,0 752.5,0 752.5,-36"/>
<text text-anchor="middle" x="651" y="-13" font-family="Helvetica,sans-Serif" font-size="20.00">FromMapProjectable</text>
</g>
<!-- 4868896269816370085&#45;&gt;&#45;8316420070872858774 -->
<g id="edge8" class="edge">
<title>4868896269816370085&#45;&gt;&#45;8316420070872858774</title>
<path fill="none" stroke="black" d="M651,-36.3C651,-44.02 651,-53.29 651,-61.89"/>
<polygon fill="black" stroke="black" points="647.5,-61.9 651,-71.9 654.5,-61.9 647.5,-61.9"/>
</g>
<!-- &#45;3228025949875089269 -->
<g id="node9" class="node">
<title>&#45;3228025949875089269</title>
<polygon fill="none" stroke="black" points="1302,-108 880,-108 880,-72 1302,-72 1302,-108"/>
<text text-anchor="middle" x="1091" y="-85" font-family="Helvetica,sans-Serif" font-size="20.00">ArrowStringConversion(FromMapProjectable)</text>
</g>
<!-- &#45;3228025949875089269&#45;&gt;&#45;2758759442461694058 -->
<g id="edge6" class="edge">
<title>&#45;3228025949875089269&#45;&gt;&#45;2758759442461694058</title>
<path fill="none" stroke="black" d="M983.93,-108.03C918.72,-118.41 835.35,-131.67 768.36,-142.33"/>
<polygon fill="black" stroke="black" points="767.5,-138.92 758.17,-143.95 768.6,-145.84 767.5,-138.92"/>
</g>
<!-- &#45;1009357371148115019 -->
<g id="node10" class="node">
<title>&#45;1009357371148115019</title>
<polygon fill="none" stroke="black" points="1192.5,-36 989.5,-36 989.5,0 1192.5,0 1192.5,-36"/>
<text text-anchor="middle" x="1091" y="-13" font-family="Helvetica,sans-Serif" font-size="20.00">FromMapProjectable</text>
</g>
<!-- &#45;1009357371148115019&#45;&gt;&#45;3228025949875089269 -->
<g id="edge9" class="edge">
<title>&#45;1009357371148115019&#45;&gt;&#45;3228025949875089269</title>
<path fill="none" stroke="black" d="M1091,-36.3C1091,-44.02 1091,-53.29 1091,-61.89"/>
<polygon fill="black" stroke="black" points="1087.5,-61.9 1091,-71.9 1094.5,-61.9 1087.5,-61.9"/>
</g>
</g>
</svg>
